 <!DOCTYPE svg PUBLIC "-//W3C//DTD SVG 1.1//EN" "http://www.w3.org/Graphics/SVG/1.1/DTD/svg11.dtd">
<svg id="a3ff0969-1bc1-44b0-a2e8-e38d852a81d6" data-name="Layer 1" xmlns="http://www.w3.org/2000/svg" width="865.76" height="682.89" viewBox="0 0 865.76 682.89">
<defs>
<style xmlns="http://www.w3.org/1999/xhtml">*, ::after, ::before { box-sizing: border-box; }
img, svg { vertical-align: middle; }
</style>
<style xmlns="http://www.w3.org/1999/xhtml">*, body, html { -webkit-font-smoothing: antialiased; }
img, svg { max-width: 100%; }
</style>
</defs>
<g id="ba7602fc-09bb-45c0-ad4b-96ac8fd67102" data-name="freepik--background-simple--inject-6">
<path d="M714.55,141.64c-53.33-48-136.66-73.63-215.5-79.92q-34.67-2.7-69.53-2.33c-228.91,1.93-295.95,80.2-281.28,117.9s55.94,60.88-3.61,113.06S18,420.76,52.06,499.05,227.39,638.2,432,628.54s337.28-10.63,379.9-83.07-50.53-122.2-63.65-184.31c-8.1-38.52,12.73-77.34,14.24-115.74C764.08,203.89,745.21,169.27,714.55,141.64Z" fill="#0071f2" data-primary="true"/>
<path d="M714.55,141.64c-53.33-48-136.66-73.63-215.5-79.92q-34.67-2.7-69.53-2.33c-228.91,1.93-295.95,80.2-281.28,117.9s55.94,60.88-3.61,113.06S18,420.76,52.06,499.05,227.39,638.2,432,628.54s337.28-10.63,379.9-83.07-50.53-122.2-63.65-184.31c-8.1-38.52,12.73-77.34,14.24-115.74C764.08,203.89,745.21,169.27,714.55,141.64Z" fill="#fff" opacity="0.7" style="isolation:isolate"/>
</g>
<path d="M555.65,474.49s7.14-33.55,7.14-38.06c0,0-47.36-44.33-24.62-58.23,0,0,14.88-14.69,26.43,30.47a.38.38,0,0,0,.75-.1A122.41,122.41,0,0,0,564.14,394a1.69,1.69,0,0,1,2.62-1.66c3.38,2.39,7.76,8.19,4.29,21.57,0,0,10.25-22.25,23.2-11.28a1.34,1.34,0,0,1-.08,2.09c-4.61,3.41-20.16,15.41-24.62,25,0,0,.38,3.38,4.88-.38,0,0,9.77-14.65,34.94,4.14,0,0,14.28,8.26-6.38,13.52,0,0-26.3,4.13-38.7,1.5,0,0-3.38,21.64-4.13,26Z" fill="#d1d3d4"/>
<path d="M538.17,378.2s26.07,27.42,24.62,58.23C562.79,436.43,515.06,392.48,538.17,378.2Z" fill="#a7a9ac"/>
<path d="M605.35,430.62s.11,5.85-12.16,4.61c-1-.1-2-.26-2.94-.44-3-.55-16-1.86-29.27,13.3l-5.33,26.4h4.51l4.13-26s52.36,4.47,49.66-10.16C614,438.29,613,434.81,605.35,430.62Z" fill="#a7a9ac"/>
<path d="M610.88,339.13s-8,72.31-28.79,136.29l6.45.72S616.75,350.25,621,335c0,0,26.28,7.13,48.56-1.87,0,0-4.71-32.57-30.43-33,0,0-9-1.71-19.71,18.86,0,0,1.14-20.17,1.28-26.45H616l.43,26.88s-29.14-24.67-48,1.8c0,0-11.89,5.12-14.46,52.77C554,374,591.06,358.84,610.88,339.13Z" fill="#d1d3d4"/>
<path d="M554,374s10.32-22.57,34.32-30.57c0,0,26.57-10.73,29.71-19.15,0,0,26.24,7.26,45.26-8.8,0,0,2.74,5.09,6.31,17.66,0,0-17.84,8.77-48.56,1.87L588.54,476.14l-6.45-.72s28.84-104.85,28.79-136.29C610.88,339.13,603.08,351.7,554,374Z" fill="#bcbec0"/>
<circle cx="611.77" cy="246.2" r="48.47" fill="#0071f2" data-primary="true"/>
<path d="M455.76,477s-3.38-59.83-17.21-77.9a.37.37,0,0,1,.31-.6c1.25.05,3.62-.31,6-3.21,0,0,4.34,8.05,15,80.93Z" fill="#d1d3d4"/>
<path d="M449.17,412.22s.12-22.09,18.12-21.45L458.11,410a18.11,18.11,0,0,0-1.75,7.76v10.69a1,1,0,0,0,1.77.56c4.78-6.68,18.84-23.16,37.23-16.24A5.92,5.92,0,0,1,499,420c-1.33,4.43-5.76,11.2-19.07,19l-23.54,14.24S452.09,424.87,449.17,412.22Z" fill="#d1d3d4"/>
<path d="M443,407s-20.27-11.89-30,0c0,0,27.64,13.09,34.92,15C447.91,422,445.55,412.08,443,407Z" fill="#d1d3d4"/>
<path d="M413.55,406.92c3.61-.49,24-2.66,33,10l1.35,5.05-34.4-14.76A.16.16,0,0,1,413.55,406.92Z" fill="#bcbec0"/>
<path d="M451.37,438.67s-23.15-32.5-55.1-14.28c0,0-32.44,26-17,38.94,0,0,7.8,9.23,42.43-14.23,0,0,19.49-7.92,30.65-4.06Z" fill="#d1d3d4"/>
<circle cx="432.58" cy="375.81" r="23.79" fill="#0071f2" data-primary="true"/>
<g opacity="0.2">
<path d="M432.58,396.09a20.28,20.28,0,1,1,20.28-20.28A20.3,20.3,0,0,1,432.58,396.09Zm0-38.55a18.28,18.28,0,1,0,18.28,18.27A18.3,18.3,0,0,0,432.58,357.54Z"/>
</g>
<path d="M408.8,378.34l42.53-17.17a22.87,22.87,0,0,1,3.55,6.35L411.06,386S409.83,384.63,408.8,378.34Z" fill="#fff" opacity="0.2"/>
<polygon points="431.03 363.86 431.03 361.17 433.79 361.17 433.79 363.86 435.86 363.86 439.2 367.3 439.2 371.44 434.59 371.44 434.59 367.87 431.03 367.87 431.03 373.56 435.97 373.56 439.86 377.44 439.86 384.66 435.98 388.53 434.02 388.53 434.02 390.87 431.03 390.87 431.03 388.11 429.42 388.11 426.03 384.72 426.03 380.64 430.69 380.64 430.69 383.63 434.71 383.63 434.71 378.45 429.58 378.45 425.91 374.78 425.91 367.19 429.27 363.82 431.03 363.86" fill="#fff"/>
<path d="M397.14,386.84s4.89-52.69,36.45-63.91l48.7,25.63s-2.86,21.71-37.15,27.14C445.14,375.7,407.43,380,397.14,386.84Z" fill="#d1d3d4"/>
<path d="M397.14,386.84s21.43-41.71,59.15-47.71c0,0,17.14,10.86,26,9.43,0,0-2.58,22.86-37.15,27.14C445.14,375.7,406.86,380.84,397.14,386.84Z" fill="#a7a9ac"/>
<path d="M345.52,575.62c13.64-24,78.78-128.53,162.72-93.48,0,0,52.36-18.38,115.75,1.83,0,0,79.92,11,108.4,96.46,0,0-45.93,57-237,50.53,0,0-124.79-2.53-149.8-44.75A10.55,10.55,0,0,1,345.52,575.62Z" fill="#2f2e41" data-secondary="true"/>
<path d="M423.38,490s-60.39,59.11-24,88c0,0,47.77,45.28,227.34,13.57,0,0,61.17-8.53,95.09-35.77,0,0,7.83,14.8,10.59,24.64,0,0-49.09,50.5-197,51,0,0-111.76,4.8-174.17-29.73,0,0-23.48-13.26-15.74-26C345.52,575.62,382.89,511.07,423.38,490Z" opacity="0.2"/>
<path d="M517.43,439s1.52,14-5.86,37.53l-7.2,19s27-3.72,38.2-2.89c0,0-16-40.61-15.43-53.68l1-238.29H520q1,58.1.41,119.15T517.43,439Z" fill="#d1d3d4"/>
<path d="M359.71,326.27S379.43,265,451,268.84c0,0,59.14-1.72,69.43,48l-.33,24.87s-30.51,23.51-76.16-10.32a71.65,71.65,0,0,1-5.6-4.69C431.45,320.4,404.16,300.19,359.71,326.27Z" fill="#d1d3d4"/>
<path d="M359.71,326.27s78.23-69.15,160.72-9.43l-.33,24.87S488.36,366,443.32,331c-1.62-1.26-3.16-2.61-4.66-4C432.11,320.92,403.19,298.31,359.71,326.27Z" fill="#bcbec0"/>
<g opacity="0.2">
<path d="M611.77,286.47A40.27,40.27,0,1,1,652,246.2,40.31,40.31,0,0,1,611.77,286.47Zm0-78.54A38.27,38.27,0,1,0,650,246.2,38.32,38.32,0,0,0,611.77,207.93Z"/>
</g>
<path d="M563.3,251.35l86.67-35s5.4,6.73,7.24,12.94l-89.3,37.54S565.4,264.18,563.3,251.35Z" fill="#fff" opacity="0.2"/>
<polygon points="608.6 221.84 608.6 216.37 614.23 216.37 614.23 221.84 618.44 221.84 625.25 228.86 625.25 237.3 615.87 237.3 615.87 230.02 608.6 230.02 608.6 241.61 618.68 241.61 626.59 249.53 626.59 264.23 618.7 272.12 614.69 272.12 614.69 276.88 608.6 276.88 608.6 271.26 605.33 271.26 598.41 264.35 598.41 256.03 607.9 256.03 607.9 262.12 616.1 262.12 616.1 251.58 605.64 251.58 598.16 244.1 598.16 228.63 605.02 221.77 608.6 221.84" fill="#fff"/>
<path d="M210.42,418.76H179.87l20,44.47s33.73,1.25,61.15-5c0,0-4,20,0,50.86l2.85,48h24s22.86-134,0-136.29Z" fill="#2f2e41" data-secondary="true"/>
<path d="M210.42,418.76H179.87l20,44.47s33.73,1.25,61.15-5c0,0-4,20,0,50.86l2.85,48h24s22.86-134,0-136.29Z" opacity="0.2"/>
<path d="M311.3,265.93s11.89-10,12.85-16.07c0,0,.63-9,5.09-7.37,0,0,3.18,2.19,0,11.62,0,0,6,2.81,19.09-16.15,0,0,5.72-4.65,2.22,5.85,0,0,3.54,7.64,1.14,12.73,0,0,1.09,9.26-25,15.13l-5.1,4.59Z" fill="#f9b499"/>
<line x1="338.78" y1="254.63" x2="348.64" y2="245.9" fill="none" stroke="#f7a48b" stroke-miterlimit="10"/>
<line x1="340.69" y1="258.13" x2="349.92" y2="250.27" fill="none" stroke="#f7a48b" stroke-miterlimit="10"/>
<path d="M340.69,262.48c.32.42,7-4.63,10.5-9.74" fill="none" stroke="#f7a48b" stroke-miterlimit="10"/>
<path d="M167.14,282.48s-27.27,4.71-35.41,26.14c0,0-6.43,9-8.14,52.71v57.43h86.83s4.13-65.55,13.23-85a4,4,0,0,1,3.14-2.27c11.59-1.47,69-10.88,94.8-55.27a43.5,43.5,0,0,0-11-10.85,2.09,2.09,0,0,0-2.59.13c-6.38,5.59-37.31,31.35-65.77,31.5A27.49,27.49,0,0,1,231.81,295c-8.43-3.38-27.39-10.67-31.94-9.47Z" fill="#0071f2" data-primary="true"/>
<path d="M167.64,284.4,181,303.33s4.06-2.5,7.83-11.12a.35.35,0,0,1,.63,0c.91,2,3.76,7.76,7.62,10.22,0,0,3.57-7.35,2.26-19.91a6,6,0,0,0-3.83-5l-.08,0-21-1.22s-3.36,0-6.81,5A2.78,2.78,0,0,0,167.64,284.4Z" fill="#0071f2" data-primary="true"/>
<path d="M167.64,284.4,181,303.33s4.06-2.5,7.83-11.12a.35.35,0,0,1,.63,0c.91,2,3.76,7.76,7.62,10.22,0,0,3.57-7.35,2.26-19.91a6,6,0,0,0-3.83-5l-.08,0-21-1.22s-3.36,0-6.81,5A2.78,2.78,0,0,0,167.64,284.4Z" fill="#fff" opacity="0.2"/>
<path d="M283.93,395c-.57-.13-13.91-3.3-16.74-15.89a21.83,21.83,0,0,1,14.39-25.62,19.28,19.28,0,0,1,13.82.37l-.76,1.85a17.32,17.32,0,0,0-12.43-.32,19.83,19.83,0,0,0-13.07,23.28C271.69,390,284.25,393,284.38,393Z" fill="#2f2e41" data-secondary="true"/>
<path d="M123.59,418.76s-8.86,6.86,30,65.15l34.85,48-81.14-5.15s-6.33,15-.62,21.3l85.76,22.13s39.35,9.72,41.8-20.41a34.75,34.75,0,0,0-3.09-17l-51.28-114Z" fill="#2f2e41" data-secondary="true"/>
<path d="M263.87,557.05v22.43h54.72s4.28-6.15-9.43-11.22l-21.29-11.21Z" fill="#0071f2" data-primary="true"/>
<path d="M107.3,526.76s-15.86-3-15.86,5.15c0,0-1.65,42.85,13.32,47.57,0,0,15.83,3.27,9.83-7.79l1.35-21.52-8.64-2.26S102.59,546.48,107.3,526.76Z" fill="#0071f2" data-primary="true"/>
<path d="M174.45,252.64v25a4.13,4.13,0,0,0,.78,2.42c2.21,3.05,8.68,11.34,13.93,11.46,0,0,5.85,1.28,6.28-14V270.6l-19.05-18.77Z" fill="#f9b499"/>
<path d="M195.44,268.62v8.14s-17.66-3.29-16.84-16.07Z" fill="#f7a48b"/>
<ellipse cx="192.06" cy="245.9" rx="17.61" ry="24.98" fill="#f9b499"/>
<path d="M173.48,261.33s-21.89-24-9.32-32.85c0,0,1.14-23.15,31.71-12,0,0,14.29-8,20,4.45,0,0,5.14,14.51-8.57,16.46,0,0-6.86,1.8-7.4-8.21a4.7,4.7,0,0,0-2.06-3.77c-1.47-.93-3.83-1.22-7.4,1.35,0,0-3.71,2.57-3.14,12.86,0,0-9.08-2.36-12.11,12.82l-.74.2v10Z" fill="#2f2e41" data-secondary="true"/>
<ellipse cx="173.48" cy="248.05" rx="5.13" ry="5.57" fill="#f9b499"/>
<path d="M139.35,296.81s13.38.81,18.24,21.95l11.07,39a4.6,4.6,0,0,0,4.3,3.34l62.89,1.79a4.43,4.43,0,0,1,4.31,4.42v13.84a4.43,4.43,0,0,1-4.43,4.43H167.14s-15,2.29-24.7-26.86l-14.35-39.28S130.26,306,139.35,296.81Z" fill="#0071f2" data-primary="true"/>
<path d="M139.35,296.81s13.38.81,18.24,21.95l11.07,39a4.6,4.6,0,0,0,4.3,3.34l62.89,1.79a4.43,4.43,0,0,1,4.31,4.42v13.84a4.43,4.43,0,0,1-4.43,4.43H167.14s-15,2.29-24.7-26.86l-14.35-39.28S130.26,306,139.35,296.81Z" opacity="0.2"/>
<path d="M240.16,365.34h16s9.78-10.13,14.51-9.11c0,0,2.36,1,5.06-2.7a7.52,7.52,0,0,1,1.79-1.69c2-1.31,4.09,1.74,2.17,3.22-2.72,2.09-6.79,5.73-4,6.9,0,0,7.08-.33,6.07,3.38,0,0-.34,2.36-5.74,2,0,0,1,5.74-2.69,8.44,0,0-1.69,7.42-10.13,6.07l-23.07-.68Z" fill="#f9b499"/>
<path d="M314.18,349.14s-32.39,0-34.08,32.89c0,0,.68,36,37.46,32.23l55.67-2.7s6.41-1.68,8.44,1l2.21,3.31a.65.65,0,0,0,1.05,0l8.06-10a1,1,0,0,0-.69-1.56l-52.81-3.26a35.75,35.75,0,0,0,5.06-27Z" fill="#2f2e41" data-secondary="true"/>
<path d="M314.18,349.14s-32.39,0-34.08,32.89c0,0,.68,36,37.46,32.23l55.67-2.7s6.41-1.68,8.44,1l2.21,3.31a.65.65,0,0,0,1.05,0l8.06-10a1,1,0,0,0-.69-1.56l-52.81-3.26a35.75,35.75,0,0,0,5.06-27Z" opacity="0.2"/>
<path d="M312.08,396.17a7.48,7.48,0,0,1-3.94.09A10.09,10.09,0,0,1,304,394.2l-2,2.18-1.72-1.57,2-2.21A10.26,10.26,0,0,1,299.5,387a6.51,6.51,0,0,1,1.73-5.29l4,3.69a3.2,3.2,0,0,0-.15,4.15l4.7-5.13a31.75,31.75,0,0,1-2.24-3.82,6.86,6.86,0,0,1-.61-3.42,6.2,6.2,0,0,1,1.82-3.72,6.58,6.58,0,0,1,5.17-2.27,9.85,9.85,0,0,1,5.88,2.27l2-2.17,1.72,1.57-2,2.18a9.43,9.43,0,0,1,2.7,5.33,7.12,7.12,0,0,1-1.66,5.29L318.53,382a3.39,3.39,0,0,0,.2-3.82l-4.65,5.07a37.67,37.67,0,0,1,2.29,3.89,6.74,6.74,0,0,1,.62,3.39,6.08,6.08,0,0,1-1.8,3.7A7,7,0,0,1,312.08,396.17Zm-2.94-4.34a3,3,0,0,0,2-1,2.5,2.5,0,0,0,.74-1.94,5.74,5.74,0,0,0-.8-2.36l-4.3,4.7A3.8,3.8,0,0,0,309.14,391.83Zm2.95-13a5.4,5.4,0,0,0,.74,2.33l4.25-4.65a3.41,3.41,0,0,0-2.19-.67,3,3,0,0,0-2,1.07A2.67,2.67,0,0,0,312.09,378.81Z" fill="#fff"/>
<path d="M430.64,523.45s117.08-71,220.21,11.41C650.85,534.86,558.71,442.91,430.64,523.45Z" fill="#2f2e41" data-secondary="true"/>
<path d="M430.64,523.45s117.08-71,220.21,11.41C650.85,534.86,558.71,442.91,430.64,523.45Z" opacity="0.2"/>
<path d="M527.62,325.25s-6.15-45.87,34.75-64.22c0,0,34.79-17.58,92.13-5.35,0,0-26,3.44-33.64,30.58C620.86,286.26,599.13,361.57,527.62,325.25Z" fill="#d1d3d4"/>
<path d="M527.62,325.25s34.82-64.6,120-70.91l6.85,1.34a44.49,44.49,0,0,0-26.93,17,41.41,41.41,0,0,0-6.1,12.33C616.81,299.86,593.93,357.73,527.62,325.25Z" fill="#bcbec0"/>
<circle cx="520.96" cy="129.02" r="77.74" fill="#0071f2" data-primary="true"/>
<g opacity="0.2">
<path d="M521,193a64,64,0,1,1,64-64A64.07,64.07,0,0,1,521,193Zm0-126a62,62,0,1,0,62,62A62.06,62.06,0,0,0,521,67Z"/>
</g>
<polygon points="515.88 89.94 515.88 81.17 524.89 81.17 524.89 89.94 531.66 89.94 542.57 101.21 542.57 114.73 527.52 114.73 527.52 103.07 515.88 103.07 515.88 121.65 532.03 121.65 544.73 134.35 544.73 157.93 532.07 170.59 525.65 170.59 525.65 178.22 515.88 178.22 515.88 169.21 510.62 169.21 499.54 158.12 499.54 144.78 514.75 144.78 514.75 154.55 527.9 154.55 527.9 137.65 511.13 137.65 499.13 125.65 499.13 100.83 510.13 89.83 515.88 89.94" fill="#fff"/>
<path d="M443.22,137.27l139-56.1s8.65,10.79,11.61,20.75L450.61,162.14S446.57,157.84,443.22,137.27Z" fill="#fff" opacity="0.2"/>
<path d="M393.2,416.18a21.53,21.53,0,0,1,2.13,1.3" fill="none" stroke="#e6e7e8" stroke-miterlimit="10"/>
<path d="M399.36,420.58c9.24,7.88,26.31,27.69,32.82,70" fill="none" stroke="#e6e7e8" stroke-miterlimit="10" stroke-dasharray="5.09 5.09"/>
<path d="M432.55,493.08l.33,2.48" fill="none" stroke="#e6e7e8" stroke-miterlimit="10"/>
<path d="M393.2,409s44.77,29.12,46.51,81.42" fill="none" stroke="#e6e7e8" stroke-miterlimit="10" stroke-dasharray="5"/>
<path d="M387.46,416.18s35.75,32.22,38.45,81.51" fill="none" stroke="#e6e7e8" stroke-miterlimit="10" stroke-dasharray="5"/>
</svg>